<?xml version="1.0" encoding="utf-8"?>
<!-- Generator: Adobe Illustrator 16.2.0, SVG Export Plug-In . SVG Version: 6.00 Build 0)  -->
<!DOCTYPE svg PUBLIC "-//W3C//DTD SVG 1.1//EN" "http://www.w3.org/Graphics/SVG/1.1/DTD/svg11.dtd">
<svg version="1.1" id="Layer_1" xmlns="http://www.w3.org/2000/svg" xmlns:xlink="http://www.w3.org/1999/xlink" x="0px" y="0px"
	 width="792px" height="612px" viewBox="0 0 792 612" enable-background="new 0 0 792 612" xml:space="preserve">
<path fill="#7CC243" d="M177.667,435.667L212.333,413c-62-0.667-151.4-10.665-152.667-48.667c-0.667-20,23.333-42,23.333-42
	c0-12.666,1.333-62,1.333-62c-51.333,38-69.22,79.33-68.667,102c0.667,27.334,11.034,58.275,70,79.334c46.667,16.666,124,16,124,16
	L177.667,435.667z"/>
<path fill="#7CC243" d="M565.666,137L521,160.333c0,0-98.667,10-141.333,24.667c-23.333,0-149.333,0-149.333,0
	c37.333-21.333,219.333-69.333,290-69.333C531,121,565.666,137,565.666,137z"/>
<rect x="81.058" y="179.102" fill="#294A9B" width="614.492" height="208.695"/>
<g>
	<path fill="#FFFFFF" d="M174.826,355.403h-69.424v-7.125h17.125V216.403h-17.125v-7.125h71.57c16.574,0,28.436,3.473,35.584,10.414
		c7.146,6.941,10.721,14.92,10.721,23.934c0,7.561-2.75,14.666-8.248,21.316c-5.5,6.652-15.088,10.994-28.768,13.029v0.436
		c27.926,3.922,41.891,16.119,41.891,36.592c0,12.199-4.494,21.982-13.482,29.352S192.4,355.403,174.826,355.403z M155.527,216.403
		v58.5h7.76c9.941,0,16.592-1.488,19.951-4.467c3.359-2.977,5.039-11.328,5.039-25.055c0-11.475-1.361-19.174-4.082-23.096
		s-8.717-5.883-17.986-5.883H155.527z M165.584,282.028h-10.057v66.25h7.742c12.066,0,19.793-2.105,23.18-6.32
		c3.385-4.213,5.078-13.982,5.078-29.311c0-12.203-1.996-20.357-5.984-24.463C181.555,284.081,174.9,282.028,165.584,282.028z"/>
	<path fill="#FFFFFF" d="M286.958,287.028v61.25h19.375v7.125h-69.125v-7.125h16.75V216.403h-16.75v-7.125h63.998
		c18.984,0,32.5,3.848,40.551,11.543s12.076,16.697,12.076,27.006c0,10.453-4.467,19.602-13.396,27.441s-24.742,11.76-47.436,11.76
		H286.958z M286.958,216.403v63.5h6.859c5.984,0,10.607-0.525,13.869-1.576s5.934-3.877,8.02-8.48
		c2.084-4.604,3.127-11.943,3.127-22.02c0-9.857-1.025-17.051-3.076-21.582s-4.674-7.303-7.869-8.318s-7.75-1.523-13.668-1.523
		H286.958z"/>
</g>
<g>
	<path fill="#FFFFFF" d="M417.678,209.998l27.004,84.625l27.268-84.625h57.045v7.125h-18.625v131.875h18.625v7.125h-73v-7.125h19
		V224.873l-41.881,131.25h-5.092l-42.402-132.875v110.809c0,6.107,0.756,10.125,2.268,12.051c1.512,1.928,5.689,2.891,12.531,2.891
		h5.076v7.125h-48.375v-7.125h8.877c5.629,0,9.057-0.943,10.283-2.834c1.227-1.889,1.84-5.703,1.84-11.443V217.123h-21v-7.125
		H417.678z"/>
	<path fill="#FFFFFF" d="M590.894,209.998l57.627,86v-62.947c0-6.617-0.648-10.928-1.943-12.928c-1.297-2-4.715-3-10.256-3h-6.801
		v-7.125h43.875v7.125h-5.072c-5.469,0-8.885,0.836-10.252,2.506c-1.367,1.672-2.051,5.014-2.051,10.025v128.469h-7.525l-86.1-128.5
		v105.529c0,5.887,0.609,9.666,1.832,11.338s4.6,2.508,10.135,2.508h8.408v7.125h-45.75v-7.125h5.707
		c5.814,0,9.297-0.98,10.445-2.941s1.723-7.156,1.723-15.586V229.656c0-5.521-0.521-8.99-1.561-10.408
		c-1.039-1.416-4.068-2.125-9.088-2.125h-7.852v-7.125H590.894z"/>
</g>
<path fill="#7CC243" d="M597.878,136.167l-48.669-22.527C666.312,112.152,758,130,771,195s-66,129-205,188s-294,72-330,74
	c-6-4-32-21-32-21l37.613-24.29c116.936-11.291,214.516-29.033,306.452-69.355s181.452-91.935,179.839-137.903
	s-121.774-50-170.968-45.968C574.678,149.613,597.878,136.167,597.878,136.167z"/>
<text transform="matrix(1 0 0 1 708.9414 383.4668)" font-family="'Myriad-Roman'" font-size="32">TM</text>
</svg>
